<svg xmlns="http://www.w3.org/2000/svg" xmlns:xlink="http://www.w3.org/1999/xlink" version="1.1" width="256" height="256" viewBox="0 0 256 256" xml:space="preserve">

<defs>
</defs>
<g style="stroke: none; stroke-width: 0; stroke-dasharray: none; stroke-linecap: butt; stroke-linejoin: miter; stroke-miterlimit: 10; fill: none; fill-rule: nonzero; opacity: 1;" transform="translate(1.4065934065934016 1.4065934065934016) scale(2.81 2.81)" >
	<path d="M 70.876 90 H 2 c -0.55 0 -1.077 -0.227 -1.455 -0.627 s -0.574 -0.939 -0.542 -1.488 l 4.46 -77.101 C 4.524 9.727 5.4 8.9 6.46 8.9 h 59.956 c 1.06 0 1.936 0.827 1.997 1.884 l 4.46 77.101 c 0.031 0.549 -0.165 1.088 -0.543 1.488 S 71.427 90 70.876 90 z M 4.119 86 h 64.638 l -4.229 -73.1 H 8.348 L 4.119 86 z" style="stroke: none; stroke-width: 1; stroke-dasharray: none; stroke-linecap: butt; stroke-linejoin: miter; stroke-miterlimit: 10; fill: rgb(0,0,0); fill-rule: nonzero; opacity: 1;" transform=" matrix(1 0 0 1 0 0) " stroke-linecap="round" />
	<path d="M 36.438 59.108 c -10.692 0 -19.39 -8.703 -19.39 -19.401 v -10.23 c 0 -1.104 0.896 -2 2 -2 s 2 0.896 2 2 v 10.23 c 0 8.492 6.904 15.401 15.39 15.401 s 15.39 -6.909 15.39 -15.401 v -10.23 c 0 -1.104 0.896 -2 2 -2 s 2 0.896 2 2 v 10.23 C 55.828 50.405 47.13 59.108 36.438 59.108 z" style="stroke: none; stroke-width: 1; stroke-dasharray: none; stroke-linecap: butt; stroke-linejoin: miter; stroke-miterlimit: 10; fill: rgb(0,0,0); fill-rule: nonzero; opacity: 1;" transform=" matrix(1 0 0 1 0 0) " stroke-linecap="round" />
	<path d="M 70.876 90 c -0.219 0 -0.438 -0.036 -0.652 -0.109 c -0.767 -0.265 -1.298 -0.966 -1.345 -1.775 l -4.46 -77.1 c -0.04 -0.707 0.296 -1.383 0.884 -1.777 c 0.589 -0.394 1.342 -0.448 1.979 -0.141 l 6.893 3.313 l 4.783 -11.196 c 0.356 -0.837 1.229 -1.328 2.134 -1.192 c 0.899 0.134 1.596 0.858 1.693 1.763 l 7.203 66.583 c 0.061 0.559 -0.117 1.116 -0.488 1.538 L 72.376 89.323 C 71.989 89.761 71.439 90 70.876 90 z M 68.608 14.173 l 3.983 68.857 l 13.325 -15.108 L 79.631 9.819 l -2.6 6.084 c -0.214 0.502 -0.624 0.895 -1.136 1.086 c -0.51 0.191 -1.077 0.167 -1.569 -0.069 L 68.608 14.173 z" style="stroke: none; stroke-width: 1; stroke-dasharray: none; stroke-linecap: butt; stroke-linejoin: miter; stroke-miterlimit: 10; fill: rgb(0,0,0); fill-rule: nonzero; opacity: 1;" transform=" matrix(1 0 0 1 0 0) " stroke-linecap="round" />
	<path d="M 80.797 4 H 21.822 c -1.104 0 -2 -0.896 -2 -2 s 0.896 -2 2 -2 h 58.975 c 1.104 0 2 0.896 2 2 S 81.901 4 80.797 4 z" style="stroke: none; stroke-width: 1; stroke-dasharray: none; stroke-linecap: butt; stroke-linejoin: miter; stroke-miterlimit: 10; fill: rgb(0,0,0); fill-rule: nonzero; opacity: 1;" transform=" matrix(1 0 0 1 0 0) " stroke-linecap="round" />
	<path d="M 24.237 31.477 H 13.858 c -1.104 0 -2 -0.896 -2 -2 s 0.896 -2 2 -2 h 10.379 c 1.104 0 2 0.896 2 2 S 25.342 31.477 24.237 31.477 z" style="stroke: none; stroke-width: 1; stroke-dasharray: none; stroke-linecap: butt; stroke-linejoin: miter; stroke-miterlimit: 10; fill: rgb(0,0,0); fill-rule: nonzero; opacity: 1;" transform=" matrix(1 0 0 1 0 0) " stroke-linecap="round" />
	<path d="M 59.018 31.477 H 48.639 c -1.104 0 -2 -0.896 -2 -2 s 0.896 -2 2 -2 h 10.379 c 1.104 0 2 0.896 2 2 S 60.122 31.477 59.018 31.477 z" style="stroke: none; stroke-width: 1; stroke-dasharray: none; stroke-linecap: butt; stroke-linejoin: miter; stroke-miterlimit: 10; fill: rgb(0,0,0); fill-rule: nonzero; opacity: 1;" transform=" matrix(1 0 0 1 0 0) " stroke-linecap="round" />
	<path d="M 16.889 12.9 c -0.328 0 -0.66 -0.081 -0.967 -0.251 c -0.966 -0.536 -1.315 -1.752 -0.78 -2.719 l 4.931 -8.9 c 0.536 -0.966 1.752 -1.315 2.719 -0.78 c 0.966 0.536 1.315 1.752 0.78 2.719 l -4.931 8.9 C 18.275 12.528 17.592 12.9 16.889 12.9 z" style="stroke: none; stroke-width: 1; stroke-dasharray: none; stroke-linecap: butt; stroke-linejoin: miter; stroke-miterlimit: 10; fill: rgb(0,0,0); fill-rule: nonzero; opacity: 1;" transform=" matrix(1 0 0 1 0 0) " stroke-linecap="round" />
</g>
</svg>